<?xml version="1.0" encoding="UTF-8"?>
<svg xmlns="http://www.w3.org/2000/svg" xmlns:xlink="http://www.w3.org/1999/xlink" width="100pt" height="100pt" viewBox="0 0 100 100" version="1.1">
<g id="surface1">
<path style=" stroke:none;fill-rule:nonzero;fill:#000000;fill-opacity:1;" d="M 61.375 64.539063 C 61.082031 61.335938 61.199219 59.105469 61.199219 56.183594 C 62.648438 55.421875 65.242188 50.578125 65.675781 46.488281 C 66.816406 46.394531 68.613281 45.285156 69.140625 40.898438 C 69.421875 38.542969 68.296875 37.21875 67.609375 36.800781 C 69.460938 31.226563 73.3125 13.980469 60.492188 12.199219 C 59.167969 9.882813 55.789063 8.710938 51.402344 8.710938 C 33.832031 9.035156 31.714844 21.980469 35.566406 36.800781 C 34.878906 37.21875 33.753906 38.542969 34.03125 40.898438 C 34.566406 45.285156 36.359375 46.394531 37.496094 46.488281 C 37.929688 50.578125 40.628906 55.421875 42.085938 56.183594 C 42.085938 59.105469 42.195313 61.335938 41.898438 64.539063 C 38.425781 73.886719 14.972656 71.257813 13.890625 89.285156 L 89.285156 89.285156 C 88.199219 71.257813 64.847656 73.886719 61.375 64.539063 Z "/>
</g>
</svg>
